<svg width="18" height="16" viewBox="0 0 18 16" fill="none" xmlns="http://www.w3.org/2000/svg">
<path d="M17.5996 3.97501C17.4987 3.58025 17.343 3.20157 17.1371 2.85001C16.9392 2.4843 16.6863 2.15123 16.3871 1.86251C15.9533 1.43018 15.4396 1.0863 14.8746 0.850011C13.7373 0.383248 12.4619 0.383248 11.3246 0.850011C10.7905 1.07606 10.2999 1.39329 9.87457 1.78751L9.81207 1.86251L8.99957 2.67501L8.18707 1.86251L8.12457 1.78751C7.69926 1.39329 7.20861 1.07606 6.67457 0.850011C5.53726 0.383248 4.26187 0.383248 3.12457 0.850011C2.55955 1.0863 2.04585 1.43018 1.61207 1.86251C1.01877 2.4398 0.598784 3.17153 0.39957 3.97501C0.293589 4.38304 0.243134 4.8035 0.24957 5.22501C0.24957 5.62126 0.29957 6.01626 0.39957 6.40001C0.504362 6.78757 0.65545 7.16109 0.84957 7.51251C1.05921 7.87377 1.31559 8.2058 1.61207 8.50001L8.99957 15.8875L16.3871 8.50001C16.6833 8.20876 16.9371 7.87501 17.1371 7.51251C17.5431 6.81889 17.7546 6.02869 17.7496 5.22501C17.7561 4.80349 17.7056 4.38303 17.5996 3.97501ZM16.3496 6.01251C16.1999 6.58366 15.9024 7.10532 15.4871 7.52501L8.97457 14.025L2.46207 7.52501C2.24985 7.31128 2.06509 7.07194 1.91207 6.81251C1.76808 6.55586 1.6548 6.28315 1.57457 6.00001C1.51052 5.71691 1.477 5.42776 1.47457 5.13751C1.47627 4.83896 1.50979 4.54145 1.57457 4.25001C1.65245 3.96606 1.76584 3.69307 1.91207 3.43751C2.06207 3.17501 2.24707 2.93751 2.46207 2.72501C2.78319 2.40819 3.16044 2.15387 3.57457 1.97501C4.40909 1.64117 5.34005 1.64117 6.17457 1.97501C6.58707 2.14626 6.95957 2.39751 7.27457 2.71251L8.97457 4.42501L10.6746 2.71251C10.9894 2.39695 11.3631 2.14637 11.7746 1.97501C12.6091 1.64117 13.5401 1.64117 14.3746 1.97501C14.7883 2.15376 15.1658 2.40876 15.4871 2.72501C15.7046 2.93126 15.8871 3.17126 16.0246 3.43751C16.3141 3.94809 16.4649 4.52556 16.4621 5.11251C16.4791 5.41454 16.4538 5.71746 16.3871 6.01251H16.3496Z" fill="white"/>
</svg>
